<svg enable-background="new 0 0 100 100" height="512" viewBox="0 0 100 100" width="512" xmlns="http://www.w3.org/2000/svg"><path d="m44.967312 86.142212h5.679653v1.385635h-5.679653z" fill="#19282f"/><path d="m45.4347878 56.8981018-6.213913 9.9458237 3.3018379 2.833435 10.5688438-9.1461525z" fill="#edbe48"/><path d="m46.0635986 77.9075012-2.0956879-.7523804-.8132057-.6427231-1.2323189-.9740677-2.7457809-3.8635712s-3.5098495-3.0767365-2.0308495-4.7972565c.7479439-.8709412 1.4316559-1.1852417 1.8666306-1.3470306.4252434-.1587296.7272911-.122612.9580383-.1700668.175396-.0360107.3025246.0425262.3929176.1547699.1583939.1966705.18713.4691772.0935974.703743-.5800018 1.4545517.6248856 1.8998566 1.2487526 2.0484848.6570129.1558762 1.9741592.5798416 2.3155365 1.2308044.3409653.6492538.4596214 3.5820007.9526901 4.7461472.0004082.0017014.0019264.0035019.0023384.0052109.312294.7297516.8119431 1.166626 1.2334938 1.6179123.2493324.2660141.4720688.5369568.6126328.8759842.3804322.9144058-.7587852 1.1640396-.7587852 1.1640396z" fill="#ededed"/><path d="m46.8223839 76.7434616c-.140564-.3390274-.3633003-.6099701-.6126328-.8759842.0572052.1436081.0363388.2626495-.1687088.2833557-.5645409.056488-1.2541924-1.0817566-2.2558708-.9867477-1.002182.0944138-1.612011.3786469-1.612011.3786469l.9815445.9696655.8132057.6427231 2.0956879.7523804c0-.0000001 1.1392174-.2496339.7587853-1.1640397z" fill="#cd5248"/><path d="m44.0212364 69.4982071c-.3413849-.6509628-1.6585274-1.0749207-2.3155365-1.2308044-.623867-.1486206-1.8287506-.5939255-1.2487526-2.0484848.0935287-.2345657.0647926-.5070801-.0935936-.703743-.0904007-.1122437-.2175217-.190773-.3929214-.1547699-.230751.0474472-.532795.0113373-.9580421.1700668-.023613.6021729-.0934525 1.7805252.5912132 3.1094437.5654335 1.0974731 2.3336525 1.4197159 2.9738731 1.5017624.1389198.0177994.2524223.1182785.2854309.2543869.173233.7141876.7338104 2.7577286 1.1317215 3.5359344.360611.7055283.8038216.4547958.9792938.312355-.4930687-1.164154-.6117248-4.0968933-.9526863-4.7461471z" fill="#de594e"/><path d="m42.4650192 71.0183487-1.3522224-.3467331.1170807.4965286-.8113518.0434799 1.4857559.5739289-.2457962-.5497589z" fill="#4da0dc"/><path d="m46.1542282 77.8018494c-2.7498245-.708847-3.2392845-2.644165-4.6764297-4.4091797-1.4612923-1.7947006-1.1543007-2.0288773-2.4957962-3.8523331-1.0158806-1.380867-1.5223732-2.2543411-1.7084007-2.5970078-.0498543-.091835-.1648598-.1264648-.2566566-.0765228-.8944817.4866943-1.024559.9162598-1.024559.9162598-.3551788 1.5465469 1.4258804 2.8083572 2.764492 4.5142517 1.3386269 1.7058945 2.1871758 3.1999969 3.4613953 4.3601151 1.073307.9772034 3.0413513 1.3041153 3.6352959 1.3829117.1099205.0145874.2202835-.0179291.3051491-.0893021l.1361313-.1144791c-.0475275-.0112228-.0943911-.022789-.1406214-.0347137z" fill="#344d5b"/><path d="m44.3280716 73.9704132c-.0398254-.0473557-.0362434-.1180954.0092735-.1611786l.3793068-.3587341c.0167885-.0158691.016201-.0345459.0143509-.0443039-.0017967-.0097504-.0081253-.0274582-.0295753-.0359955l-.3728333-.1502991c-.0866127-.0348358-.150528-.1101837-.170929-.2014084-.0203781-.0911407.0053673-.1864777.0688744-.2549515l.3132591-.3379288c.0142136-.015358.0137596-.0324478.0122147-.0413055-.0014725-.0087738-.0067596-.0250015-.025383-.0347672l-.452816-.2357635c-.0810585-.04216-.135498-.1180267-.1494789-.2082825-.0140152-.0902328.0149002-.1791306.0793076-.2438507l.3560219-.3576736c.0154228-.0154724.0150032-.0332947.0134125-.0425644-.0016212-.0092545-.007206-.0261307-.0270309-.0355377l-.4173586-.1983032c-.0938797-.044548-.1557159-.1367111-.1616364-.2403564-.0059204-.103653.0451431-.2021561.133255-.2570877l.248703-.1549835c.0206909-.0129013.0231628-.0323944.0228157-.0428696-.0003433-.0104675-.0041656-.0298386-.0257759-.0412445l-.5680122-.2396469c-.0574913-.0304489-.0792046-.101738-.0487938-.1591492.0304947-.0574341.1017456-.0792618.159153-.0487976l.5680389.2396774c.0908356.0482559.1470871.1383591.1506195.2410126.003582.1027069-.0463905.1964493-.1335831.2508011l-.2486725.1549606c-.0212097.013237-.0233727.033226-.0227737.0439301.0007057.0107269.0051346.0302734.0276871.0411453l.4173622.1983032c.0830803.039505.1421127.1172562.1578941.2078094.01577.0906601-.013588.1837311-.0784721.2489548l-.3560219.3576736c-.0150681.0151215-.0149727.0326157-.0135536.0416794.001442.0091019.0066147.0257263.0255547.0356293l.452816.2357635c.0792198.0411072.1334686.1153717.1486588.2033157.0152626.088028-.0108299.1760559-.0715523.2415314l-.3132553.3379288c-.0150871.0162888-.0138435.034317-.0117607.0435791.0020981.0093994.0086136.0261917.0292435.0344772l.3728333.1502914c.0901337.0362854.1547318.1150665.1728363.2105179.0180702.0954819-.013298.1923447-.0838928.2591248l-.3793068.3587341c-.0472298.0446701-.1217155.0425873-.1663895-.0046387-.0015946-.0017165-.0031586-.003456-.0046349-.0052184z" fill="#293b44"/><path d="m43.3591385 44.489994s10.9648514 6.5047226 11.7227936 7.7106552c.7579384 1.2059326 1.5158768 2.5196915 1.3137589 3.6313362s-3.7896957 4.6992226-3.7896957 4.6992226-5.5582199-4.2949867-6.0635147-4.9013405c-.5052911-.6063499-3.1833421-11.1398735-3.1833421-11.1398735z" fill="#edbe48"/><path d="m51.8028336 49.2174072-11.0678864-7.9240456.8303795 5.331707 8.3286324 4.8890991 1.9043694-1.3365555c.331951-.2330016.3342589-.724121.0045051-.960205z" fill="#293b44"/><path d="m90.5962296 77.4855652h-14.3064881l13.217453-5.4748612-.1307068-.3155517-13.2174835 5.4748611 10.1162338-10.1162185-.2415237-.2415162-10.1162338 10.1162186 5.4748764-13.2174835-.315567-.130703-5.4748383 13.2174874v-14.3065033h-.3415833v14.3065033l-5.4748382-13.2174874-.3155747.130703 5.4748764 13.2174835-10.1162338-10.1162186-.2415161.2415162 10.1162338 10.1162185-13.2174911-5.4748611-.130703.3155517 13.2174492 5.4748612h-14.3064842v.3415527h14.3065223l-13.2174873 5.4748612.130703.3155594 13.2174911-5.4748688-10.1162338 10.1162262.2415161.2415161 10.1162338-10.116211-5.4748764 13.2174683.3155747.1307068 5.4748382-13.2174835v14.3065033h.3415833v-14.3065033l5.4748383 13.2174835.315567-.1307068-5.4748764-13.2174683 10.1162338 10.116211.2415237-.2415161-10.1162338-10.1162262 13.2174835 5.4748688.1307068-.3155594-13.2174911-5.4748612h14.3065262z" fill="#ededed"/><path d="m40.372406 77.4855652h-14.306488l13.217453-5.4748612-.130703-.3155517-13.2174873 5.4748611 10.1162338-10.1162185-.2415199-.2415162-10.116232 10.1162186 5.4748726-13.2174835-.3155689-.130703-5.4748382 13.2174874v-14.3065033h-.3415852v14.3065033l-5.4748383-13.2174874-.3155689.130703 5.4748726 13.2174835-10.1162319-10.1162186-.241518.2415162 10.1162319 10.1162185-13.2174864-5.4748611-.130702.3155517 13.2174511 5.4748612h-14.3064881v.3415527h14.3065224l-13.2174854 5.4748612.130702.3155594 13.2174864-5.4748688-10.1162319 10.1162262.241518.2415161 10.1162319-10.116211-5.4748726 13.2174683.3155689.1307068 5.4748383-13.2174835v14.3065033h.3415852v-14.3065033l5.4748382 13.2174835.3155689-.1307068-5.4748726-13.2174683 10.116232 10.116211.2415199-.2415161-10.1162338-10.1162262 13.2174873 5.4748688.130703-.3155594-13.2174874-5.4748612h14.3065224z" fill="#ededed"/><path d="m75.43116 93.8223572c-8.9139709 0-16.165947-7.251976-16.165947-16.1659393s7.251976-16.1660881 16.165947-16.1660881 16.1659393 7.2521248 16.1659393 16.1660881-7.251976 16.1659393-16.1659393 16.1659393zm0-30.3242569c-7.8068619 0-14.1581764 6.3514557-14.1581764 14.1583176s6.3513145 14.1581726 14.1581764 14.1581726 14.1581726-6.3513107 14.1581726-14.1581726-6.3513107-14.1583176-14.1581726-14.1583176z" fill="#344d5b"/><path d="m24.5689831 93.8223572c-8.9139652 0-16.1660843-7.251976-16.1660843-16.1659393s7.2521191-16.1660881 16.1660843-16.1660881 16.1659451 7.2521248 16.1659451 16.1660881-7.2519799 16.1659393-16.1659451 16.1659393zm0-30.3242569c-7.8068619 0-14.1583138 6.3514557-14.1583138 14.1583176s6.3514519 14.1581726 14.1583138 14.1581726 14.1581745-6.3513107 14.1581745-14.1581726-6.3513146-14.1583176-14.1581745-14.1583176z" fill="#344d5b"/><g fill="#4288ba"><path d="m75.1178665 78.6978378c-.0764694-.1226883-7.69104-12.4767227-11.7259102-29.9966125l1.9565086-.4505424c3.9558792 17.1764793 11.3990326 29.2658195 11.4736786 29.3859825z"/><path d="m66.1002579 56.6856041-21.5891342 22.6643105-18.0130787-1.9806061 12.5946445-15.6711426 26.7242508-7.6474838-.5523605-1.9301834-27.3373947 7.8228302-13.8753395 17.2649002c-.6113224.7606506-.141592 1.8964996.8284359 2.0031586l20.3991604 2.2429276 22.2745514-23.3838882z"/><path d="m39.368599 51.492992h2.007618v29.616724h-2.007618z" transform="matrix(.952 -.305 .305 .952 -18.321 15.499)"/></g><path d="m53.7988129 8.2579689c-.9047279-.5459795-1.8411789-.5843101-2.923214-.1641569-.0708313.0275116-.1416626.0527115-.2125626.0764332 1.0452347.0192308 2.0905076.1064033 3.1357766.0877237z" fill="#fed35b"/><path d="m71.5930252 45.9115143c-.3857727-.7084541-1.8027039-.3312798-3.3486557-1.4212189-1.54599-1.0899277-8.2433281-8.6893387-10.3041801-10.8792458-2.0608482-2.189909-5.3449745-4.6365204-5.924366-6.1824989-.5793915-1.5459881-1.8672295-4.830122-1.8672295-4.830122l2.1253777-2.3175468s1.848568.2653179 2.8137321 0c.8662148-.2397499 1.0268517-.774929.9192924-1.537838-.0224762-.1594315.0705872-.3128834.220089-.3726768l.0912437-.0364914c.0474777-.0190029.0637589-.0780602.0327034-.1187019l-.4200134-.2415352s.5773239-.0229855.4096146-.2698441c-.0705872-.1038647-.1258354-.2345314-.0826645-.4030132.1548958-.6023331.5478439-.6324539.638176-.7228031.0903664-.0903511.5421028.0602398-.3312912-1.3265629-.8418121-1.3351679.3456459-1.8887367-.2323074-3.7014685-.0214996-.0702715-.0459023-.1434126-.0745773-.2179813-.3705406-.9845667-.838768-1.9321785-1.527607-2.624012-.0439072.0326662-.095829.0545321-.150589.0588732-2.0292702.1607876-4.0884056-.2731342-6.1054535.0718899-.4127998.070612-.8410416.1774454-1.2496758.3335314-.2733421.3414268-.4772568.7593832-.7497978 1.1018429-.5356941.6731901-.9796219 1.2027225-.9712524 2.1017799.0016823.1835194.017437.3660841.0377769.5483694.2285995.6297655.6424522 1.7810106.1060562 2.1600151-.010994.3186865-.0246849.6373549-.0277672.9556999-.0013275.1369438-.0853233.219635-.1868286.2496319.0344543.1496449.0677528.2960243.0978966.4318027.1262207.5607471.2108116.9723396.2108116.9723396s-.7910004.3323231-1.6211357.9754906c-1.2188072.9442978-2.7094765 2.4250469-3.4439926 3.411211-1.2361946 1.6578445-4.4015121 5.6220322-6.5125351 8.3052788-2.1095886 2.6832371-4.4615345 8.3810101-5.0954399 10.0990849-.6324348 1.7195091-2.1095886 4.3124046-1.114315 6.4822311.9938717 2.1712646 8.1701889 8.0196075 10.3099213 9.4064026 2.1411362 1.3868027 5.2761421 3.7688789 6.4822273 4.9147377 1.2060814 1.1444283 1.5373726 1.2061043 1.5373726 1.2061043s-2.8037148 3.9180145-2.5326462 6.1495056c.2710342 2.2314911-.722805 9.6473389-.722805 9.6473389l-.9350471 3.4074783.9350471 1.7180786h3.3759308l1.8127136-2.0852127s-1.6105156-.1290741-.3872032-4.4429092c1.2233086-4.3152771 5.2159157-11.3353043 5.4095039-14.3942795.1936188-3.0589867 1.4169273-3.3157005-1.1587486-6.0849876-2.5757141-2.7692909-10.1910095-10.9748764-10.1910095-10.9748764l-1.0152397-2.9361076s4.3798141-8.1787949 7.4058266-9.724781l.0014.0014343c.0014343 0 .0014343.0014343.0028725.0028725.1964912.2409286 8.6176491 10.5178452 13.3273201 12.6188354l2.7592468 2.3175392 1.9417725-.1921692s2.3190002 2.6402168 2.9629211 2.4466133 2.7047346-3.3486711 2.3175276-4.057129z" fill="#feda6f"/><path d="m66.3125763 47.5220299-1.9417725.1921692-2.7592468-2.3175392c-4.709671-2.1009903-13.1308289-12.3779068-13.3273201-12.6188354.1950531.15345 6.4263077 5.0911331 9.3404541 7.4201431 2.9585762 2.3677367 8.6878853 7.3240623 8.6878853 7.3240623z" fill="#edbe48"/><path d="m54.8952637 38.3016968 3.1618652-4.8638306-7.4591675-11.3294678c-4.4776611.8832397-6.4775391-3.439209-6.4775391-3.439209-2.4561157 1.2689209-4.0465088 3.1849365-8.6709595 8.0037231s-7.8305664 14.2504272-7.8305664 14.2504272c-3.7650146 6.9033203 2.6516113 11.5872192 2.6516113 11.5872192l10.1549072 6.0974121c.1898804.1140137.4277954.1117554.6154175-.0059204l9.1348877-5.7264404c.3060303-.1918335.3686523-.6113892.1320801-.8842163l-8.9938354-9.2564087 6.9702759-9.1239624z" fill="#de594e"/><path d="m50.3077736 51.9913864-8.9938202-9.2563896-13.6950512-1.8116531c-3.7650032 6.903347 2.6516304 11.5872345 2.6516304 11.5872345l10.1548748 6.0974197c.1898766.1140022.4277725.1117516.6154518-.0059357l9.1348381-5.7264557c.3060227-.1917991.3686524-.6113853.1320763-.8842201z" fill="#344d5b"/><path d="m63.173687 47.268311h2.453693v2.453693h-2.453693z" fill="#304551" transform="matrix(.975 -.223 .223 .975 -9.179 15.551)"/><path d="m65.261673 46.6164894-2.4463768.4142265c-.1250687.0211716-.2089577.1401215-.1869354.2650299l.1959686 1.1113396c.0218124.1236115.1392097.2065201.2630157.185688l3.6427269-.6129951c-.4715194-.5123749-.9295578-.9909287-1.468399-1.3632889z" fill="#344d5b"/><path d="m69.140625 46.5445023c-.4886703 0-.8848419.3961601-.8848419.8848495 0 .4886932.3961716.8848534.8848419.8848534.4887085 0 .8848801-.3961601.8848801-.8848534 0-.4886894-.3961716-.8848495-.8848801-.8848495z" fill="#344d5b"/><path d="m55.2483406 84.9565811-1.9902954.9983597-1.0262718.1454544-1.5552711.2203522-4.6912918-.6769714s-4.71978.4492722-4.9453049-1.8083267c-.1146774-1.1422806.2005081-1.8843994.3834-2.3109283.1783981-.4173813.4128914-.6111526.5377007-.8109512.0949097-.1518326.2394638-.1897049.3830795-.1777344.2516479.0209808.4687729.1881409.5740891.4176559.6530647 1.4232483 1.806572.8580399 2.3445129.5088654.5660515-.3681793 1.7815399-1.0293884 2.488327-.8275375.7052689.2009659 2.9104958 2.1379852 4.0934715 2.5839844.0015144.0008774.0038681.0010223.0053864.0018997.7437782.2772522 1.4047279.2168427 2.0222473.2229156.3645782.0029602.714386.0285873 1.0568123.1606674.9244613.3552855.3194083 1.3522948.3194083 1.3522948z" fill="#ededed"/><path d="m54.9349823 83.6042862c-.3424225-.1320801-.6922302-.1577072-1.0568123-.1606674.1434288.0576324.2152252.1548462.0887871.3175964-.3485107.4477005-1.6483345.1619034-2.2704697.9526749-.622921.7907333-.8377724 1.4283218-.8377724 1.4283218l1.3791084-.0418167 1.0262718-.1454544 1.9902954-.9983597c.0000001 0 .6050531-.9970093-.3194083-1.3522949z" fill="#cd5248"/><path d="m47.7510223 80.6348114c-.7067947-.2018433-1.9222832.4593658-2.488327.8275375-.5379372.3491745-1.6914482.9143906-2.3445168-.5088654-.1053162-.2295074-.3224449-.3966751-.5740852-.4176483-.1436234-.0119705-.2881699.0258942-.3830833.1777267-.1248131.1997986-.3593025.3935776-.5376968.8109589.4197006.4324493 1.2246819 1.2958145 2.6591187 1.7167435 1.1846199.3476181 2.6376038-.7103424 3.1386108-1.1172791.1087112-.0883102.2597504-.101181.3810654-.0311966.6365814.3672028 2.5028343 1.3709106 3.3407402 1.6195908.7595634.225563.8837357-.26828.9016457-.493576-1.1829835-.4460068-3.3882104-2.3830185-4.0934717-2.583992z" fill="#de594e"/><path d="m47.7782097 82.8101044-1.1837731.7398834.4402619.2577209-.5281677.6174317 1.4403686-.6798477-.5675812-.2012482z" fill="#4da0dc"/><path d="m55.2343559 84.8180923c-2.409977 1.5019989-4.1488113.5214539-6.4180336.3445282-2.3073692-.179924-2.2651672-.5637207-4.5107231-.8502121-1.7005119-.2169571-2.6822968-.4527435-3.058712-.5544128-.1008759-.0272522-.2052765.0321274-.2324371.1330414-.2646065.9833374-.0433159 1.3738174-.0433159 1.3738174.8747444 1.3239212 3.016861.9047546 5.1753082 1.112236 2.1584587.2074814 3.8255348.6236954 5.5444145.5013504 1.4478569-.1030579 3.0420494-1.3024826 3.5087891-1.6781616.0863838-.069519.1389618-.1718521.1458282-.2825317l.0110092-.1775284c-.0409088.0266724-.0816078.05262-.1221275.0778732z" fill="#344d5b"/><path d="m51.2006607 83.4974594c-.0617523-.00383-.1105003-.0552216-.1102982-.1178894l.0019035-.5220718c.0000877-.0231018-.0138397-.0355606-.0221825-.0409546-.008297-.0054245-.0254822-.0130539-.046463-.003418l-.3659897.1662674c-.0849648.038681-.183609.0329895-.2637253-.0151672-.0800438-.048111-.1313133-.1325073-.137085-.2257233l-.0285912-.4598999c-.0013161-.0208893-.0139999-.032341-.0214844-.0373383-.0073662-.0049896-.0227623-.012352-.0426788-.0056l-.4830399.1652222c-.0864372.0296097-.1789131.0167007-.2539101-.0354385-.0749969-.0520935-.1194115-.134346-.1218491-.2256241l-.0133896-.5044785c-.0005646-.021843-.0137558-.0338287-.0215683-.0390701-.0078163-.0052109-.0238876-.0128098-.0443726-.0049438l-.4314613.1653976c-.0970078.0372391-.2063904.0184402-.2855148-.0487671-.0791283-.0672073-.1152306-.1721268-.0942192-.2738113l.05933-.286972c.0049362-.0238724-.0074768-.0391159-.0152969-.0460892s-.0244751-.0175629-.0476418-.0097885l-.5653114.2459564c-.0616989.0206299-.1282959-.0128326-.1488876-.0744476-.020546-.0616913.0127983-.128334.0744514-.1488876l.5653496-.2459488c.0975952-.032486.2016335-.0110626.2783928.0571823.0768356.0682602.1102333.1690979.089447.2697144l-.05933.2869339c-.0050507.0244904.0079308.0398407.016098.0467987.0082474.0068817.0254593.0171585.0488853.0083237l.4314575-.16539c.0859146-.0329056.1829262-.0220108.2593727.0290222.076519.0511169.1236534.1365662.1261253.2285385l.0133896.5044785c.0005569.0213394.0132866.0333405.0208282.0385666.0075836.0052261.0231895.0129547.0434227.006073l.4830399-.1652298c.084404-.029007.1755943-.0170517.2497444.032608.0742645.049675.1199951.1292801.1255226.2184067l.0285912.4598999c.0013924.0221558.0153008.0336914.0234413.0385742.0082512.0049667.02491.0118332.0451355.0026093l.3659897-.166275c.0884399-.0402298.1900368-.0326614.2716331.0200729.0815964.0527725.1300926.1423035.1297455.2394714l-.0019035.5220795c-.0002327.0650101-.0531197.1175003-.1181297.1172714-.0023419-.0000307-.0046764-.0000993-.0069729-.0002443z" fill="#293b44"/><path d="m53.8773346 37.5794754-.7605972 1.2751198-4.8325005-5.2435455z" fill="#cd5248"/><path d="m56.3325272 11.5499468c.2692871-.5009155.3685303-1.1028442.2038574-1.6472778-.1645508-.5444336-.4818115-1.0299683-.8287354-1.4806519-.4707031-.6112676-1.0172119-1.1846929-1.7004395-1.5430303-.6682129-.3505859-1.4279785-.4762573-2.1728516-.5971069-.4953613-.0803223-1.0053711-.1604004-1.4951172-.0505981-.3930664.0880737-.7485352.293457-1.0944824.500061-.6363525.380188-1.2644043.774231-1.883667 1.1817627-.4136963.2722783-.8319092.5587163-1.1241455.9584966-.2724609.3725586-.4182129.8201904-.5596924 1.2594604-.350708 1.0883179-.7039795 2.1890259-.791748 3.3291626-.0755615.980957.0838623 1.9961548.552124 2.8528433.0319824.1390381.0649414.2815552.0930176.4083252 0 0 1.607666.6309814 2.375-.4876099.7686768-1.1200552-.2285156-1.1088858.2519531-2.3866568.4411621-1.1783447 1.8068848-.4648438 1.862793.7514038.0084229.1814575.1608887.322998.3425293.322998.1833496 0 .3356934-.1433105.3428955-.3265991.0115967-.2959595.0838623-.7713623.366333-1.3355103.479004-.9594115.9293214-2.4924925 5.2603761-1.7094725" fill="#293b44"/></svg>