<svg height="512pt" viewBox="-13 0 512 512.00003" width="512pt" xmlns="http://www.w3.org/2000/svg"><path d="m1.691406 512 43.035156-128.976562c-35.910156-50.582032-50.941406-111.921876-42.378906-173.648438 8.90625-64.207031 42.285156-121.101562 93.984375-160.203125 51.699219-39.105469 115.535157-55.730469 179.738281-46.824219 64.210938 8.90625 121.105469 42.28125 160.207032 93.980469 39.101562 51.703125 55.730468 115.535156 46.824218 179.742187-8.90625 64.207032-42.285156 121.101563-93.984374 160.203126-51.699219 39.105468-115.53125 55.738281-179.738282 46.828124-28.03125-3.890624-54.75-12.453124-79.539062-25.484374zm240.589844-481.820312c-45.953125 0-90.453125 14.851562-127.746094 43.054687-45.273437 34.242187-74.5 84.0625-82.300781 140.289063-7.820313 56.382812 6.839844 112.402343 41.289063 157.742187l4.820312 6.34375-26.855469 80.480469 80.128907-34.003906 6.472656 3.664062c23.300781 13.183594 48.679687 21.753906 75.433594 25.464844 9.855468 1.367187 19.664062 2.03125 29.34375 2.03125 104.335937.007812 195.613281-77.109375 210.347656-183.320313 7.796875-56.226562-6.761719-112.121093-41.003906-157.394531-34.242188-45.269531-84.0625-74.5-140.285157-82.300781-9.910156-1.375-19.808593-2.050781-29.644531-2.050781zm0 0"/><path d="m156.460938 209.207031v82.214844h-27.714844v-30.300781h-25.605469v30.300781h-27.71875v-82.214844h27.71875v29.128907h25.605469v-29.128907zm0 0"/><path d="m244.074219 270.515625v20.90625h-68.355469v-82.214844h66.828125v20.90625h-39.578125v9.628907h34.761719v19.96875h-34.761719v10.804687zm0 0"/><path d="m260.632812 209.207031h27.714844v60.722657h37.113282v21.492187h-64.828126zm0 0"/><path d="m416.011719 240.214844c0 19.027344-14.5625 31.007812-37.464844 31.007812h-11.863281v20.199219h-27.71875v-82.214844h39.582031c22.902344 0 37.464844 11.980469 37.464844 31.007813zm-27.953125 0c0-5.992188-3.640625-9.628906-11.273438-9.628906h-10.101562v19.257812h10.101562c7.632813 0 11.273438-3.640625 11.273438-9.628906zm0 0"/></svg>