<svg id="Capa_1" enable-background="new 0 0 512 512" height="512" viewBox="0 0 512 512" width="512" xmlns="http://www.w3.org/2000/svg"><path d="m181 195h37.5v37.5c0 4.142 3.358 7.5 7.5 7.5h60c4.142 0 7.5-3.358 7.5-7.5v-37.5h37.5c4.142 0 7.5-3.358 7.5-7.5v-60c0-4.142-3.358-7.5-7.5-7.5h-37.5v-37.5c0-4.142-3.358-7.5-7.5-7.5h-60c-4.142 0-7.5 3.358-7.5 7.5v37.5h-37.5c-4.142 0-7.5 3.358-7.5 7.5v60c0 4.142 3.358 7.5 7.5 7.5zm7.5-60h37.5c4.142 0 7.5-3.358 7.5-7.5v-37.5h45v37.5c0 4.142 3.358 7.5 7.5 7.5h37.5v45h-37.5c-4.142 0-7.5 3.358-7.5 7.5v37.5h-45v-37.5c0-4.142-3.358-7.5-7.5-7.5h-37.5z"/><path d="m504.5 45h-91v-37.5c0-4.142-3.358-7.5-7.5-7.5h-300c-4.142 0-7.5 3.358-7.5 7.5v37.5h-91c-4.142 0-7.5 3.358-7.5 7.5v195c0 4.142 3.358 7.5 7.5 7.5s7.5-3.358 7.5-7.5v-157.5h83.5v210h-83.5v-22.5c0-4.142-3.358-7.5-7.5-7.5s-7.5 3.358-7.5 7.5v227c0 4.142 3.358 7.5 7.5 7.5h497c4.142 0 7.5-3.358 7.5-7.5v-452c0-4.142-3.358-7.5-7.5-7.5zm-91 270h83.5v45h-83.5zm0-15v-210h83.5v210zm0 75h83.5v92h-83.5zm83.5-315v15h-83.5v-15zm-383.5-45h285v482h-15v-189.5c0-4.142-3.358-7.5-7.5-7.5h-240c-4.142 0-7.5 3.358-7.5 7.5v189.5h-15zm150 360h75v122h-75zm-15 122h-75v-122h75zm97.5-137h-180c-4.142 0-7.5 3.358-7.5 7.5v129.5h-15v-182h225v182h-15v-129.5c0-4.142-3.358-7.5-7.5-7.5zm-331 15h83.5v92h-83.5zm0-300v-15h83.5v15zm83.5 240v45h-83.5v-45zm-83.5 167h83.5v15h-83.5zm398.5 15v-15h83.5v15z"/></svg>