<svg height="512pt" viewBox="0 0 512 512" width="512pt" xmlns="http://www.w3.org/2000/svg"><path d="m512 240h-480v-240h-32v512h32v-240h480zm0 0" fill="#b0bec5"/><path d="m467.855469 272c-21.824219 35.28125-45.503907 64-83.855469 64-46.816406 0-71.761719-42.769531-98.175781-88.0625-28.433594-48.722656-60.640625-103.9375-125.824219-103.9375-61.664062 0-93.824219 49.425781-121.167969 96h37.3125c21.824219-35.28125 45.503907-64 83.855469-64 46.816406 0 71.761719 42.769531 98.175781 88.0625 28.433594 48.722656 60.640625 103.9375 125.824219 103.9375 61.664062 0 93.824219-49.425781 121.167969-96zm0 0" fill="#7c4dff"/><path d="m336.320312 317.601562c3.839844 14.71875 7.839844 29.757813 12.160157 44.160157-42.402344-15.683594-67.679688-58.722657-90.242188-97.761719-15.679687-26.878906-30.878906-52.960938-50.558593-69.601562-3.839844-14.71875-7.839844-29.757813-12.160157-44.160157 42.402344 15.683594 67.679688 58.722657 90.242188 97.761719 15.679687 26.878906 30.878906 52.960938 50.558593 69.601562zm0 0" fill="#651fff"/><path d="m467.839844 272c-11.007813 17.792969-22.496094 34.03125-36.160156 45.601562-3.839844 14.71875-7.839844 29.757813-12.160157 44.160157 39.535157-14.625 64.144531-52.992188 85.570313-89.761719zm0 0" fill="#651fff"/><path d="m76.160156 240c11.007813-17.792969 22.496094-34.03125 36.160156-45.601562 3.839844-14.71875 7.839844-29.757813 12.160157-44.160157-39.535157 14.625-64.144531 52.992188-85.570313 89.761719zm0 0" fill="#651fff"/><path d="m475.824219 272c-22.863281 97.34375-51.28125 208-91.824219 208-43.3125 0-72.753906-126.222656-96.414062-227.632812-30.289063-129.773438-58.898438-252.367188-127.585938-252.367188-66.496094 0-95.441406 114.910156-124.6875 240h32.847656c22.878906-97.34375 51.296875-208 91.839844-208 43.3125 0 72.753906 126.222656 96.414062 227.632812 30.289063 129.773438 58.898438 252.367188 127.585938 252.367188 66.496094 0 95.441406-114.910156 124.6875-240zm0 0" fill="#64b5f6"/><g fill="#b0bec5"><path d="m288 32h192v32h-192zm0 0"/><path d="m448 128h-32v-32h32zm-64 0h-96v-32h96zm0 0"/><path d="m64 384h192v32h-192zm0 0"/><path d="m224 480h-32v-32h32zm-64 0h-96v-32h96zm0 0"/></g></svg>